# xmcd
#
# Track frame offsets: 
#        150
#        22335
#        47205
#        66090
#        89070
#        101933
#        126136
#        142389
#        160262
#        180235
#        197538
#        233328
#
# Disc length: 3458 seconds
#
# Revision: 0
# Processed by: cddbd v1.5.2PL0 Copyright (c) Steve Scherf et al.
# Submitted via: ExactAudioCopy v1.0b4
#
DISCID=ac0d800c
DTITLE=The Mannish Boys - Live and In Demand
DYEAR=2005
DGENRE=Blues
TTITLE0=Kid's Jump
TTITLE1=I'm Ready (Tribute To Lester Bu
TTITLE2=She Wants To Sell My Monkey
TTITLE3=Mannish Boy
TTITLE4=You're Sweet
TTITLE5=Howling Wolf
TTITLE6=Goin' Crazy Over T.V.
TTITLE7=Mystery Train
TTITLE8=It's Too Bad
TTITLE9=Strangest Blues
TTITLE10=As The Years Go Passing By
TTITLE11=Walkin' And Walkin'
EXTD=
EXTT0=
EXTT1=
EXTT2=
EXTT3=
EXTT4=
EXTT5=
EXTT6=
EXTT7=
EXTT8=
EXTT9=
EXTT10=
EXTT11=
PLAYORDER=
